<?xml version="1.0" encoding="utf-8"?>
<!-- Generator: Adobe Illustrator 19.0.0, SVG Export Plug-In . SVG Version: 6.00 Build 0)  -->
<svg version="1.1"
	 id="svg4774" sodipodi:docname="spacemacs-logo.svg" inkscape:version="0.91 r13725" xmlns:inkscape="http://www.inkscape.org/namespaces/inkscape" xmlns:sodipodi="http://sodipodi.sourceforge.net/DTD/sodipodi-0.dtd" xmlns:svg="http://www.w3.org/2000/svg" xmlns:rdf="http://www.w3.org/1999/02/22-rdf-syntax-ns#" xmlns:dc="http://purl.org/dc/elements/1.1/" xmlns:cc="http://creativecommons.org/ns#"
	 xmlns="http://www.w3.org/2000/svg" xmlns:xlink="http://www.w3.org/1999/xlink" x="0px" y="0px" viewBox="35 87.9 666 666"
	 style="enable-background:new 35 87.9 666 666;" xml:space="preserve">
<style type="text/css">
	.st0{fill:#222221;}
	.st1{fill:#FFFFFF;}
</style>
<sodipodi:namedview  inkscape:window-maximized="1" inkscape:window-y="25" inkscape:window-x="1366" inkscape:current-layer="layer1" inkscape:pageshadow="2" inkscape:document-units="px" inkscape:pageopacity="0.0" inkscape:window-width="1920" inkscape:window-height="1055" pagecolor="#ffffff" inkscape:cx="395.86046" borderopacity="1.0" inkscape:cy="245.84063" showgrid="false" bordercolor="#666666" units="px" inkscape:zoom="0.7" id="base">
	</sodipodi:namedview>
<g id="layer1" transform="translate(0,-386.36216)" inkscape:groupmode="layer" inkscape:label="spacemacs">
	<g id="g5039" transform="matrix(12.9592,4.5120702,-4.5120702,12.9592,4535.5464,-12837.419)">
		<circle id="path4186" class="st0" cx="40.4" cy="1039.6" r="23.1"/>
		<path id="path5256-9" sodipodi:nodetypes="ccccccsccccccc" inkscape:connector-curvature="0" class="st1" d="M46.3,1031
			c14.5,9.8,9.4,4.9,10.3,11.1c-0.1,0.1-0.2,0.3-0.3,0.4c0,0,0,0,0,0c0,0,0,0,0,0c0,0,0-0.1,0.1-0.1c-1.2-5.1,2.7-1.1-11.2-10.2
			c-9.1-5.9-16.4-7.2-22.6-7.4c-3.5-0.1-5.9,0.9-7,2.8c-1.3,2.4-0.9,3.8,2,8.3c-0.1,0.3,0,0.5-0.1,0.9c-3.9-5.4-5-9.8-3.4-12.7
			c1-1.8,2.7-2.6,5.7-2.8C28.9,1021,39.9,1026.8,46.3,1031L46.3,1031z"/>
		<path id="path6023" inkscape:connector-curvature="0" class="st1" d="M41.1,1019.9c0.2,0,2.5,1.2,3.4,1.7c1.6,1,2.3,1.7,3.5,3.3
			c3.2,4.3,5.6,7.8,8.1,12c1.2,2.1,3.4,5.9,3.8,6.6c0,0.1,0.1,0.2,0.1,0.3c0,0-0.2-0.1-0.7-0.3c-1.5-0.6-4.4-1.4-7.1-1.8
			c-3.4-0.6-6.7-1-14-1.6c-6.6-0.6-9.7-0.9-12.2-1.2l-2.2-0.3l-2.4-2.6c-1.5-1.5-2.7-2.7-2.7-2.7c0,0,0.3,0.1,0.8,0.4
			c4.8,2.5,13.3,3.3,21.7,2c3-0.5,6.4-1.6,7.5-2.3c0.2-0.1,0.4-0.2,0.5-0.3c0,0,0,0,0,0c0-0.1,0-0.2,0-0.3
			c-0.4-3.4-3.9-9.3-7.4-12.4C41.4,1020.2,41.1,1019.9,41.1,1019.9C41.1,1019.9,41.1,1019.9,41.1,1019.9L41.1,1019.9z"/>
	</g>
</g>
<path id="path5256-9_1_" sodipodi:nodetypes="ccccccsccccccc" inkscape:connector-curvature="0" class="st0" d="M203.9,157.9
	c-44.8-17-80.6-15.4-103.2,4.7c-28.3,25.3-29,45.3-11.4,115.9c-2.7,3.8-2.7,6.3-5.8,10.7C57.9,202,62.7,139.6,96.1,109.4
	c21-18.9,46.9-21.5,86.2-10c24.9,8.1,49.7,19.7,73.8,34"/>
</svg>
